<svg version="1.1" xmlns="http://www.w3.org/2000/svg" xmlns:xlink="http://www.w3.org/1999/xlink" width="20px" height="20px" viewBox="0,0,256,256"><g fill="#ffffff" fill-rule="nonzero" stroke="none" stroke-width="1" stroke-linecap="butt" stroke-linejoin="miter" stroke-miterlimit="10" stroke-dasharray="" stroke-dashoffset="0" font-family="none" font-weight="none" font-size="none" text-anchor="none" style="mix-blend-mode: normal"><g transform="translate(0.01926,0.00218) scale(0.5,0.5)"><g transform="translate(0,512) scale(0.1,-0.1)"><path d="M707,5054c-340,-61 -617,-334 -688,-678c-18,-87 -19,-167 -19,-1726c0,-1797 -3,-1705 62,-1838c42,-88 159,-207 245,-250c60,-31 140,-55 215,-67c32,-5 38,-11 49,-43c43,-133 159,-269 284,-334c140,-73 24,-69 2015,-66l1785,3l66,22c170,58 314,202 372,372l22,66l3,1792c3,1975 6,1866 -60,2001c-42,88 -159,207 -245,250c-60,31 -140,55 -215,67c-32,5 -38,11 -49,43c-43,133 -159,269 -284,334c-139,72 -40,68 -1852,67c-1351,-1 -1641,-3 -1706,-15zM4101,4854c100,-29 185,-97 229,-184l20,-40h-899c-494,0 -912,-3 -930,-6c-80,-16 -109,-108 -52,-165l29,-29h1030c628,0 1049,-4 1081,-10c112,-21 221,-101 271,-200c40,-79 41,-109 38,-1381l-3,-1227l-171,157c-202,185 -359,306 -417,322c-23,6 -77,9 -122,7c-121,-5 -168,-33 -445,-263c-129,-108 -253,-206 -275,-217c-80,-42 -206,-16 -257,53c-14,19 -212,376 -439,794c-302,556 -425,773 -458,808c-26,27 -71,61 -110,80c-61,30 -72,32 -171,32c-95,0 -110,-3 -163,-28c-110,-55 -118,-66 -637,-946c-266,-453 -490,-830 -497,-839c-10,-14 -12,224 -10,1268l2,1285l23,57c44,108 113,176 223,221c51,20 75,22 421,27l368,5l26,26c31,31 35,86 10,124c-28,43 -66,47 -446,43c-306,-4 -363,-7 -410,-22c-188,-61 -333,-206 -397,-396c-17,-52 -18,-135 -21,-1784l-2,-1729l-38,6c-95,12 -213,102 -262,197c-41,80 -41,91 -38,1795l3,1640l23,65c43,119 83,182 172,271c69,71 101,94 170,127c156,75 39,70 1851,71c1457,1 1631,-1 1680,-15zM2140,3170c26,-13 52,-40 74,-73c18,-28 300,-542 626,-1142c325,-600 603,-1100 616,-1112c36,-33 85,-30 126,6c56,50 49,75 -86,319c-65,118 -115,216 -112,220c3,3 34,9 68,14c102,13 165,53 423,268c132,110 254,206 272,215c39,19 113,19 156,1c18,-7 164,-134 325,-282l292,-268v-370c0,-401 -5,-446 -53,-529c-37,-62 -117,-132 -185,-159l-57,-23l-1774,-3c-1600,-2 -1780,-1 -1830,14c-145,41 -246,155 -271,305c-5,35 -10,180 -10,322v258l576,977c317,537 588,990 602,1006c54,58 149,73 222,36z"></path><path d="M2100,4619c-96,-38 -69,-189 33,-189c43,0 92,38 100,77c7,40 -16,89 -52,107c-34,18 -46,19 -81,5z"></path><path d="M3695,3799c-82,-17 -188,-75 -254,-140c-103,-103 -154,-223 -154,-364c0,-389 412,-636 756,-453c115,62 219,194 253,322c19,69 18,200 -2,267c-48,164 -178,299 -341,354c-59,20 -192,27 -258,14zM3925,3581c109,-48 185,-164 185,-282c0,-96 -23,-153 -89,-220c-73,-74 -146,-103 -242,-96c-189,13 -321,181 -287,367c13,69 36,115 85,163c91,92 232,119 348,68z"></path><path d="M3661,656c-87,-48 -50,-186 49,-186c51,0 100,49 100,99c0,75 -83,124 -149,87z"></path></g></g></g></svg>